<?xml version="1.0" encoding="utf-8"?>
<!-- Generator: Adobe Illustrator 21.1.0, SVG Export Plug-In . SVG Version: 6.00 Build 0)  -->
<svg version="1.1" id="Layer_1" xmlns="http://www.w3.org/2000/svg" xmlns:xlink="http://www.w3.org/1999/xlink" x="0px" y="0px"
	 viewBox="0 0 612 792" style="enable-background:new 0 0 612 792;" xml:space="preserve">
<style type="text/css">
	.st0{fill:#FFFFFF;}
</style>
<g>
	<g>
		<polygon class="st0" points="187,330.5 187,363.6 235.3,423.7 235.7,423.7 235.7,390.7 		"/>
		<rect x="164.3" y="330.6" class="st0" width="22.6" height="153.8"/>
	</g>
	<g>
		<polygon class="st0" points="309.8,330.5 309.8,363.6 358.2,423.7 358.5,423.7 358.5,390.7 		"/>
		<rect x="287.1" y="330.6" class="st0" width="22.6" height="153.8"/>
		<rect x="309.1" y="331.5" class="st0" width="1.3" height="32.1"/>
		<rect x="164.3" y="330.5" class="st0" width="22.7" height="2.7"/>
		<rect x="186.5" y="332.5" class="st0" width="1.8" height="31.2"/>
		<rect x="287.1" y="330.5" class="st0" width="22.7" height="2.9"/>
	</g>
	<polygon class="st0" points="411.4,328.9 411.3,329 411.3,484.8 432.2,484.8 432.2,328.9 	"/>
</g>
<g>
	<path class="st0" d="M185.8,519.3c0,0.2-0.1,0.3-0.2,0.3c-0.5,0-1.1,0-1.9-0.1c-0.7,0-1.3-0.1-1.7-0.1c-0.5,0-1,0-1.7,0.1
		c-0.7,0-1.3,0.1-1.8,0.1c-0.1,0-0.2-0.1-0.2-0.3c0-0.2,0.1-0.3,0.2-0.3c0.9-0.1,1.5-0.3,1.8-0.5c0.3-0.2,0.5-0.6,0.5-1.3v-0.2
		l-0.5-11l-5.5,13.8c0,0.1-0.2,0.2-0.3,0.2c-0.2,0-0.3-0.1-0.3-0.2l-5.2-13.2l-0.8,10.5c0,0.1,0,0.2,0,0.3c0,0.5,0.2,0.9,0.5,1.1
		c0.3,0.2,1,0.4,1.9,0.5c0.1,0,0.2,0.1,0.2,0.3c0,0.2-0.1,0.3-0.2,0.3c-0.4,0-0.9,0-1.6-0.1c-0.6,0-1.1-0.1-1.5-0.1
		c-0.4,0-0.9,0-1.5,0.1c-0.6,0-1.1,0.1-1.5,0.1c-0.1,0-0.2-0.1-0.2-0.3c0-0.2,0.1-0.3,0.2-0.3c1-0.1,1.6-0.3,2-0.5
		c0.4-0.2,0.6-0.7,0.6-1.4l1.2-10.7c0-0.1,0-0.3,0-0.4c0-0.5-0.2-0.9-0.5-1.1c-0.3-0.2-1-0.4-1.9-0.5c-0.1,0-0.2-0.1-0.2-0.3
		c0-0.1,0-0.1,0.1-0.2c0-0.1,0.1-0.1,0.1-0.1c0.3,0,0.7,0,1.2,0.1c0.4,0,0.8,0.1,1,0.1c0.3,0,0.6,0,1.1-0.1c0.5,0,0.9-0.1,1.2-0.1
		l4.9,12.6l5-12.6c0.3,0,0.7,0,1.2,0.1c0.4,0,0.8,0.1,1.1,0.1c0.3,0,0.7,0,1.1-0.1c0.5,0,0.9-0.1,1.2-0.1c0.1,0,0.2,0.1,0.2,0.3
		s-0.1,0.3-0.2,0.3c-0.9,0.1-1.5,0.3-1.8,0.5c-0.3,0.2-0.5,0.6-0.5,1.3v0.2l0.5,10.7c0,0.5,0.1,0.9,0.2,1.1c0.1,0.2,0.4,0.4,0.7,0.5
		c0.3,0.1,0.8,0.2,1.5,0.3C185.7,519,185.8,519.1,185.8,519.3z"/>
	<path class="st0" d="M194,519.9c-0.4,0-0.8-0.1-1.1-0.3c-0.3-0.2-0.5-0.5-0.6-0.8c-0.8,0.8-1.9,1.3-3.2,1.3c-0.7,0-1.2-0.2-1.7-0.6
		c-0.4-0.4-0.6-0.9-0.6-1.6c0-1.6,1.8-2.8,5.5-3.8l0.1-1.8v-0.1c0-0.5-0.1-1-0.4-1.3c-0.3-0.3-0.6-0.5-1.1-0.5
		c-0.4,0-0.8,0.1-1.1,0.3c-0.3,0.2-0.5,0.5-0.5,0.8c0,0.5-0.1,0.9-0.4,1.1c-0.2,0.3-0.6,0.4-1,0.4c-0.2,0-0.4-0.1-0.6-0.2
		c-0.2-0.1-0.2-0.3-0.2-0.6c0-0.6,0.5-1.2,1.6-1.8c1.1-0.6,2-1,3-1c0.8,0,1.5,0.2,2,0.7c0.5,0.5,0.8,1.1,0.8,2v0.1l-0.2,5.1v0.1
		c0,0.8,0.3,1.2,0.8,1.2c0.3,0,0.5-0.2,0.9-0.5l0.1,0c0.1,0,0.1,0,0.2,0.1c0.1,0.1,0.1,0.2,0.1,0.3c0,0.2-0.2,0.5-0.7,0.8
		C195.1,519.7,194.6,519.9,194,519.9z M192.3,514.7c-2.2,0.5-3.3,1.3-3.3,2.5c0,1.1,0.4,1.6,1.2,1.6c0.4,0,0.8-0.1,1.2-0.3
		c0.4-0.2,0.7-0.5,0.8-0.7L192.3,514.7z"/>
	<path class="st0" d="M204.5,510.6c0,0.4-0.1,0.6-0.3,0.6l-3.4-0.1v5.5c0,1.4,0.5,2.1,1.5,2.1c0.6,0,1.2-0.1,1.7-0.4
		c0.1,0,0.1,0,0.2,0.1c0,0.1,0.1,0.2,0.1,0.3c0,0.2-0.3,0.4-0.8,0.8c-0.6,0.3-1.2,0.5-1.9,0.5c-0.9,0-1.6-0.3-2.1-0.8
		c-0.5-0.5-0.8-1.2-0.8-2.1v-0.1l0-5.5c0-0.2-0.1-0.3-0.3-0.3h-0.9c-0.2,0-0.3-0.1-0.3-0.3c0-0.1,0.1-0.3,0.2-0.3
		c1.1-0.6,2-1.5,2.7-2.6c0.1-0.1,0.2-0.2,0.3-0.2c0.2,0,0.3,0.1,0.3,0.2l-0.1,2.2h3.3C204.4,509.9,204.5,510.1,204.5,510.6z"/>
	<path class="st0" d="M213.5,510.6c0,0.4-0.1,0.6-0.3,0.6l-3.4-0.1v5.5c0,1.4,0.5,2.1,1.5,2.1c0.6,0,1.2-0.1,1.7-0.4
		c0.1,0,0.1,0,0.2,0.1c0,0.1,0.1,0.2,0.1,0.3c0,0.2-0.3,0.4-0.8,0.8c-0.6,0.3-1.2,0.5-1.9,0.5c-0.9,0-1.6-0.3-2.1-0.8
		c-0.5-0.5-0.8-1.2-0.8-2.1v-0.1l0-5.5c0-0.2-0.1-0.3-0.3-0.3h-0.9c-0.2,0-0.3-0.1-0.3-0.3c0-0.1,0.1-0.3,0.2-0.3
		c1.1-0.6,2-1.5,2.7-2.6c0.1-0.1,0.2-0.2,0.3-0.2c0.2,0,0.3,0.1,0.3,0.2l-0.1,2.2h3.3C213.4,509.9,213.5,510.1,213.5,510.6z"/>
	<path class="st0" d="M227.2,519.3c0,0.2-0.1,0.3-0.2,0.3c-0.3,0-0.7,0-1.1-0.1c-0.5,0-0.9-0.1-1.3-0.1c-0.4,0-0.8,0-1.3,0.1
		c-0.4,0-0.8,0.1-1.1,0.1c-0.1,0-0.2-0.1-0.2-0.3c0-0.2,0.1-0.3,0.2-0.3c0.5-0.1,0.9-0.2,1-0.4c0.2-0.2,0.2-0.7,0.2-1.5v-3.8
		c0-1.6-0.7-2.5-2.2-2.5c-0.9,0-1.8,0.4-2.4,1.1v5.1c0,0.7,0.1,1.2,0.3,1.4c0.2,0.3,0.6,0.4,1.2,0.5c0.1,0,0.2,0.1,0.2,0.3
		c0,0.2-0.1,0.3-0.2,0.3c-0.3,0-0.7,0-1.2-0.1c-0.6,0-1-0.1-1.4-0.1c-0.4,0-0.8,0-1.3,0.1c-0.4,0-0.8,0.1-1.1,0.1
		c-0.1,0-0.2-0.1-0.2-0.3c0-0.2,0.1-0.3,0.2-0.3c0.6-0.1,1.1-0.2,1.2-0.4c0.2-0.2,0.3-0.7,0.3-1.5v-10.6c0-0.6-0.1-1-0.2-1.2
		c-0.1-0.2-0.5-0.3-1-0.4c-0.1,0-0.2-0.1-0.2-0.3c0-0.2,0.1-0.3,0.2-0.3c1.3-0.3,2.3-0.7,2.9-1.2c0.1-0.1,0.2-0.1,0.3-0.1
		c0.2,0,0.3,0.1,0.3,0.2c-0.1,1.2-0.2,2.6-0.2,4v3.9c1.1-1,2.2-1.5,3.2-1.5c1.1,0,1.9,0.3,2.6,0.9c0.6,0.6,0.9,1.4,0.9,2.4v4.3
		c0,0.7,0.1,1.2,0.3,1.5c0.2,0.2,0.6,0.4,1.3,0.5C227.1,519,227.2,519.1,227.2,519.3z"/>
	<path class="st0" d="M237.7,513.1c0,0.2-0.1,0.3-0.4,0.3H231c0,0.4-0.1,0.8-0.1,1.3c0,1.2,0.3,2.2,0.9,2.8s1.4,1,2.5,1
		c0.5,0,1.1-0.1,1.6-0.4c0.5-0.3,1-0.7,1.3-1.1l0.1,0c0.1,0,0.1,0,0.2,0.1c0.1,0.1,0.1,0.2,0.1,0.3c0,0.2-0.2,0.5-0.7,1
		c-0.5,0.5-1,0.9-1.6,1.2c-0.6,0.3-1.2,0.4-1.8,0.4c-1.4,0-2.5-0.5-3.4-1.5c-0.9-1-1.4-2.2-1.4-3.7c0-1.5,0.5-2.7,1.4-3.8
		c0.9-1,2.1-1.5,3.5-1.5c1.2,0,2.2,0.4,3,1.2C237.3,511.4,237.7,512.2,237.7,513.1z M235.6,512.1c0-0.6-0.2-1-0.6-1.4
		c-0.4-0.4-0.9-0.6-1.5-0.6c-0.6,0-1.1,0.2-1.5,0.7c-0.4,0.5-0.7,1.1-0.9,1.9l3.2-0.1c0.5,0,0.8-0.1,1-0.1
		C235.5,512.5,235.6,512.4,235.6,512.1z"/>
	<path class="st0" d="M255.8,510.1c0,0.2-0.1,0.3-0.2,0.3c-0.6,0.1-1,0.3-1.3,0.5c-0.2,0.2-0.5,0.7-0.8,1.4l-3.3,7.4
		c-0.1,0.1-0.2,0.2-0.3,0.2c-0.1,0-0.2-0.1-0.3-0.2l-2.3-6l-2.7,6c-0.1,0.1-0.2,0.2-0.3,0.2c-0.1,0-0.2-0.1-0.3-0.2l-3.1-7.4
		c-0.3-0.7-0.6-1.1-0.9-1.4s-0.7-0.5-1.3-0.5c-0.1,0-0.2-0.1-0.2-0.3c0-0.2,0.1-0.3,0.2-0.3c0.3,0,0.7,0,1.1,0.1
		c0.5,0,0.9,0.1,1.3,0.1c0.4,0,0.8,0,1.3-0.1c0.4,0,0.8-0.1,1.1-0.1c0.1,0,0.2,0.1,0.2,0.3c0,0.2-0.1,0.3-0.2,0.3
		c-0.4,0-0.6,0.1-0.8,0.2c-0.1,0.1-0.2,0.3-0.2,0.5c0,0.2,0.1,0.6,0.3,1.2l1.8,4.5l2-4.5l-0.1-0.4c0-0.1-0.1-0.2-0.1-0.4
		c-0.2-0.5-0.4-0.8-0.5-1c-0.1-0.2-0.4-0.3-0.7-0.3c-0.1,0-0.2-0.1-0.2-0.3c0-0.2,0.1-0.3,0.2-0.3c0.3,0,0.6,0,1,0.1
		c0.4,0,0.8,0.1,1.1,0.1c0.4,0,0.8,0,1.3-0.1c0.5,0,0.8-0.1,1.2-0.1c0.1,0,0.2,0.1,0.2,0.3c0,0.2-0.1,0.3-0.2,0.3
		c-0.8,0.1-1.2,0.5-1.2,1.2c0,0.3,0,0.6,0.1,0.8l1.7,4.4l1.8-4.2c0.2-0.5,0.3-0.9,0.3-1.2c0-0.5-0.3-0.8-1-0.9
		c-0.1,0-0.2-0.1-0.2-0.3c0-0.2,0.1-0.3,0.2-0.3c0.3,0,0.7,0,1.1,0.1c0.4,0,0.7,0.1,1,0.1c0.2,0,0.4,0,0.7-0.1
		c0.5-0.1,0.8-0.1,1.1-0.1C255.7,509.8,255.8,509.9,255.8,510.1z"/>
	<path class="st0" d="M283.7,519.3c0,0.2-0.1,0.3-0.2,0.3c-0.5,0-1.1,0-1.9-0.1c-0.7,0-1.3-0.1-1.7-0.1s-1,0-1.7,0.1
		c-0.7,0-1.3,0.1-1.8,0.1c-0.1,0-0.2-0.1-0.2-0.3c0-0.2,0.1-0.3,0.2-0.3c0.9-0.1,1.5-0.3,1.8-0.5c0.3-0.2,0.5-0.6,0.5-1.3v-0.2
		l-0.5-11l-5.5,13.8c0,0.1-0.2,0.2-0.3,0.2c-0.2,0-0.3-0.1-0.3-0.2l-5.2-13.2l-0.8,10.5c0,0.1,0,0.2,0,0.3c0,0.5,0.2,0.9,0.5,1.1
		c0.3,0.2,1,0.4,1.9,0.5c0.1,0,0.2,0.1,0.2,0.3c0,0.2-0.1,0.3-0.2,0.3c-0.4,0-0.9,0-1.6-0.1c-0.6,0-1.1-0.1-1.5-0.1
		c-0.4,0-0.9,0-1.5,0.1c-0.6,0-1.1,0.1-1.5,0.1c-0.1,0-0.2-0.1-0.2-0.3c0-0.2,0.1-0.3,0.2-0.3c1-0.1,1.6-0.3,2-0.5
		c0.4-0.2,0.6-0.7,0.6-1.4l1.2-10.7c0-0.1,0-0.3,0-0.4c0-0.5-0.2-0.9-0.5-1.1c-0.3-0.2-1-0.4-1.9-0.5c-0.1,0-0.2-0.1-0.2-0.3
		c0-0.1,0-0.1,0.1-0.2c0-0.1,0.1-0.1,0.1-0.1c0.3,0,0.7,0,1.2,0.1c0.4,0,0.8,0.1,1,0.1c0.3,0,0.6,0,1.1-0.1c0.5,0,0.9-0.1,1.2-0.1
		l4.9,12.6l5-12.6c0.3,0,0.7,0,1.2,0.1c0.4,0,0.8,0.1,1.1,0.1c0.3,0,0.7,0,1.1-0.1c0.5,0,0.9-0.1,1.2-0.1c0.1,0,0.2,0.1,0.2,0.3
		s-0.1,0.3-0.2,0.3c-0.9,0.1-1.5,0.3-1.8,0.5c-0.3,0.2-0.5,0.6-0.5,1.3v0.2l0.5,10.7c0,0.5,0.1,0.9,0.2,1.1c0.1,0.2,0.4,0.4,0.7,0.5
		c0.3,0.1,0.8,0.2,1.5,0.3C283.7,519,283.7,519.1,283.7,519.3z"/>
	<path class="st0" d="M293.4,511.2c0,0.6-0.3,0.9-0.9,0.9c-0.3,0-0.5-0.1-0.7-0.2c-0.2-0.1-0.3-0.4-0.5-0.7
		c-0.2-0.4-0.4-0.7-0.7-0.9s-0.5-0.2-0.9-0.2c-0.9,0-1.6,0.4-2.1,1.1c-0.5,0.8-0.7,1.9-0.7,3.3c0,1.2,0.3,2.2,0.9,3
		c0.6,0.7,1.4,1.1,2.4,1.1c1.2,0,2.1-0.4,2.7-1.1l0.1,0c0.1,0,0.1,0,0.2,0.1c0.1,0.1,0.1,0.2,0.1,0.3c0,0.2-0.2,0.4-0.7,0.8
		c-0.4,0.4-0.9,0.7-1.5,0.8c-0.5,0.2-1.1,0.3-1.7,0.3c-1.4,0-2.5-0.5-3.5-1.5c-1-1-1.5-2.3-1.5-3.8c0-1.5,0.5-2.8,1.5-3.8
		c1-1,2.2-1.5,3.6-1.5c1,0,1.9,0.2,2.6,0.5C293.1,510.3,293.4,510.7,293.4,511.2z"/>
	<path class="st0" d="M316.6,519.3c0,0.2-0.1,0.3-0.2,0.3c-0.5,0-1.1,0-1.9-0.1c-0.7,0-1.3-0.1-1.7-0.1c-0.5,0-1,0-1.7,0.1
		c-0.7,0-1.3,0.1-1.8,0.1c-0.1,0-0.2-0.1-0.2-0.3c0-0.2,0.1-0.3,0.2-0.3c0.9-0.1,1.5-0.3,1.8-0.5c0.3-0.2,0.5-0.6,0.5-1.3v-0.2
		l-0.5-11l-5.5,13.8c0,0.1-0.2,0.2-0.3,0.2c-0.2,0-0.3-0.1-0.3-0.2l-5.2-13.2l-0.8,10.5c0,0.1,0,0.2,0,0.3c0,0.5,0.2,0.9,0.5,1.1
		c0.3,0.2,1,0.4,1.9,0.5c0.1,0,0.2,0.1,0.2,0.3c0,0.2-0.1,0.3-0.2,0.3c-0.4,0-0.9,0-1.6-0.1c-0.6,0-1.1-0.1-1.5-0.1
		c-0.4,0-0.9,0-1.5,0.1c-0.6,0-1.1,0.1-1.5,0.1c-0.1,0-0.2-0.1-0.2-0.3c0-0.2,0.1-0.3,0.2-0.3c1-0.1,1.6-0.3,2-0.5
		c0.4-0.2,0.6-0.7,0.6-1.4l1.2-10.7c0-0.1,0-0.3,0-0.4c0-0.5-0.2-0.9-0.5-1.1c-0.3-0.2-1-0.4-1.9-0.5c-0.1,0-0.2-0.1-0.2-0.3
		c0-0.1,0-0.1,0.1-0.2c0-0.1,0.1-0.1,0.1-0.1c0.3,0,0.7,0,1.2,0.1c0.4,0,0.8,0.1,1,0.1c0.3,0,0.6,0,1.1-0.1c0.5,0,0.9-0.1,1.2-0.1
		l4.9,12.6l5-12.6c0.3,0,0.7,0,1.2,0.1c0.4,0,0.8,0.1,1.1,0.1c0.3,0,0.7,0,1.2-0.1c0.5,0,0.9-0.1,1.2-0.1c0.1,0,0.2,0.1,0.2,0.3
		s-0.1,0.3-0.2,0.3c-0.9,0.1-1.5,0.3-1.8,0.5c-0.3,0.2-0.5,0.6-0.5,1.3v0.2l0.5,10.7c0,0.5,0.1,0.9,0.2,1.1c0.1,0.2,0.4,0.4,0.7,0.5
		c0.3,0.1,0.8,0.2,1.5,0.3C316.6,519,316.6,519.1,316.6,519.3z"/>
	<path class="st0" d="M328.7,518.9c0,0.2-0.1,0.3-0.2,0.3c-1.4,0.1-2.3,0.4-2.8,0.8c-0.1,0.1-0.2,0.1-0.3,0.1
		c-0.2,0-0.2-0.1-0.2-0.2l0.1-1.4c-1.1,1-2.1,1.5-3.1,1.5c-1,0-1.8-0.3-2.4-0.9c-0.6-0.6-0.9-1.4-0.9-2.4v-4.3
		c0-0.7-0.1-1.1-0.3-1.3c-0.2-0.2-0.5-0.3-1-0.3c-0.1,0-0.2,0-0.3,0c-0.1,0-0.2-0.1-0.2-0.3c0-0.2,0.1-0.4,0.2-0.4
		c0.9,0,2-0.2,3.4-0.5c0.1,0,0.2,0.1,0.2,0.3v6.3c0,0.9,0.2,1.5,0.5,1.9c0.3,0.4,0.8,0.6,1.5,0.6c0.4,0,0.8-0.1,1.2-0.3
		c0.3-0.2,0.7-0.5,1.1-0.9v-5c0-0.7-0.1-1.1-0.3-1.3c-0.2-0.2-0.5-0.3-1.1-0.3c-0.1,0-0.2,0-0.3,0c-0.1,0-0.2-0.1-0.2-0.3
		c0-0.2,0.1-0.4,0.2-0.4c0.9,0,2-0.2,3.5-0.5c0.1,0,0.2,0.1,0.2,0.3v7.3c0,0.5,0.1,0.9,0.2,1.1c0.1,0.2,0.5,0.3,1,0.4
		C328.6,518.6,328.7,518.7,328.7,518.9z"/>
	<path class="st0" d="M335.3,519.3c0,0.2-0.1,0.3-0.2,0.3c-0.3,0-0.7,0-1.2-0.1c-0.5,0-1-0.1-1.4-0.1c-0.4,0-0.8,0-1.4,0.1
		c-0.5,0-0.9,0.1-1.2,0.1c-0.1,0-0.2-0.1-0.2-0.3c0-0.2,0.1-0.3,0.2-0.3c0.6-0.1,1.1-0.2,1.3-0.5c0.2-0.2,0.3-0.7,0.3-1.5v-10.6
		c0-0.6-0.1-1-0.2-1.2c-0.2-0.2-0.5-0.3-1-0.4c-0.1,0-0.2-0.1-0.2-0.3c0-0.2,0.1-0.3,0.2-0.3c0.8-0.2,1.4-0.4,2-0.7
		c0.5-0.2,0.8-0.4,1-0.6c0.1-0.1,0.2-0.1,0.3-0.1c0.2,0,0.3,0.1,0.3,0.2c-0.1,1.7-0.2,3-0.2,4v9.9c0,0.7,0.1,1.2,0.3,1.5
		c0.2,0.2,0.6,0.4,1.3,0.5C335.2,519,335.3,519.1,335.3,519.3z"/>
	<path class="st0" d="M342,519.3c0,0.2-0.1,0.3-0.2,0.3c-0.3,0-0.7,0-1.2-0.1c-0.5,0-1-0.1-1.4-0.1c-0.4,0-0.8,0-1.4,0.1
		c-0.5,0-0.9,0.1-1.2,0.1c-0.1,0-0.2-0.1-0.2-0.3c0-0.2,0.1-0.3,0.2-0.3c0.6-0.1,1.1-0.2,1.3-0.5c0.2-0.2,0.3-0.7,0.3-1.5v-10.6
		c0-0.6-0.1-1-0.2-1.2c-0.2-0.2-0.5-0.3-1-0.4c-0.1,0-0.2-0.1-0.2-0.3c0-0.2,0.1-0.3,0.2-0.3c0.8-0.2,1.4-0.4,2-0.7
		c0.5-0.2,0.8-0.4,1-0.6c0.1-0.1,0.2-0.1,0.3-0.1c0.2,0,0.3,0.1,0.3,0.2c-0.1,1.7-0.2,3-0.2,4v9.9c0,0.7,0.1,1.2,0.3,1.5
		c0.2,0.2,0.6,0.4,1.3,0.5C342,519,342,519.1,342,519.3z"/>
	<path class="st0" d="M352.5,513.1c0,0.2-0.1,0.3-0.4,0.3h-6.2c0,0.4-0.1,0.8-0.1,1.3c0,1.2,0.3,2.2,0.9,2.8s1.4,1,2.5,1
		c0.5,0,1.1-0.1,1.6-0.4c0.5-0.3,1-0.7,1.3-1.1l0.1,0c0.1,0,0.1,0,0.2,0.1c0.1,0.1,0.1,0.2,0.1,0.3c0,0.2-0.2,0.5-0.7,1
		c-0.5,0.5-1,0.9-1.6,1.2c-0.6,0.3-1.2,0.4-1.8,0.4c-1.4,0-2.5-0.5-3.4-1.5c-0.9-1-1.4-2.2-1.4-3.7c0-1.5,0.5-2.7,1.4-3.8
		c0.9-1,2.1-1.5,3.5-1.5c1.2,0,2.2,0.4,3,1.2C352.1,511.4,352.5,512.2,352.5,513.1z M350.4,512.1c0-0.6-0.2-1-0.6-1.4
		c-0.4-0.4-0.9-0.6-1.5-0.6c-0.6,0-1.1,0.2-1.5,0.7c-0.4,0.5-0.7,1.1-0.9,1.9l3.2-0.1c0.5,0,0.8-0.1,1-0.1
		C350.3,512.5,350.4,512.4,350.4,512.1z"/>
	<path class="st0" d="M366.3,519.3c0,0.2-0.1,0.3-0.2,0.3c-0.3,0-0.7,0-1.1-0.1c-0.5,0-0.9-0.1-1.3-0.1c-0.4,0-0.8,0-1.3,0.1
		c-0.4,0-0.8,0.1-1.1,0.1c-0.1,0-0.2-0.1-0.2-0.3c0-0.2,0.1-0.3,0.2-0.3c0.5-0.1,0.9-0.2,1-0.4c0.2-0.2,0.2-0.7,0.2-1.5v-3.8
		c0-0.8-0.2-1.5-0.5-1.9c-0.3-0.4-0.9-0.6-1.5-0.6c-0.4,0-0.8,0.1-1.2,0.3s-0.7,0.5-1.1,0.9v5.1c0,0.8,0.1,1.2,0.2,1.5
		c0.2,0.2,0.5,0.4,1,0.4c0.1,0,0.2,0.1,0.2,0.3c0,0.2-0.1,0.3-0.2,0.3c-0.3,0-0.7,0-1.1-0.1c-0.5,0-0.9-0.1-1.3-0.1
		c-0.4,0-0.8,0-1.3,0.1c-0.4,0-0.8,0.1-1.1,0.1c-0.1,0-0.2-0.1-0.2-0.3c0-0.2,0.1-0.3,0.2-0.3c0.7-0.1,1.1-0.2,1.3-0.5
		c0.2-0.2,0.3-0.7,0.3-1.4v-4.2c0-0.6-0.1-1-0.2-1.2c-0.2-0.2-0.5-0.3-1-0.4c-0.1,0-0.2-0.1-0.2-0.3c0-0.2,0.1-0.3,0.2-0.3
		c0.8-0.2,1.4-0.4,1.9-0.6c0.5-0.2,0.8-0.4,0.9-0.6c0.1-0.1,0.2-0.1,0.3-0.1c0.2,0,0.3,0.1,0.3,0.2l-0.1,1.4c1.1-1,2.1-1.5,3-1.5
		c1,0,1.8,0.3,2.4,0.9c0.6,0.6,0.9,1.4,0.9,2.4v4.3c0,0.7,0.1,1.2,0.3,1.5c0.2,0.2,0.6,0.4,1.2,0.5
		C366.2,519,366.3,519.1,366.3,519.3z"/>
	<path class="st0" d="M384,515c0,1.5-0.4,2.7-1.3,3.6c-0.9,0.9-2.1,1.3-3.6,1.3c-0.7,0-1.5-0.1-2.4-0.4c-0.9-0.2-1.6-0.3-2.1-0.3
		c0-1.3-0.1-2.6-0.3-3.9c0-0.1,0.1-0.2,0.3-0.2c0.2,0,0.3,0.1,0.3,0.2c0.4,1.4,0.9,2.4,1.6,3c0.6,0.6,1.5,0.9,2.7,0.9
		c0.9,0,1.6-0.3,2.1-0.8c0.5-0.5,0.8-1.3,0.8-2.2c0-0.6-0.2-1.2-0.7-1.7c-0.4-0.5-1.4-1.2-2.8-2c-1.6-0.9-2.7-1.8-3.2-2.4
		c-0.5-0.7-0.8-1.4-0.8-2.2c0-1.2,0.5-2.3,1.4-3.1c0.9-0.9,2.1-1.3,3.5-1.3c0.5,0,1.1,0.1,1.8,0.2c0.6,0.1,1.2,0.2,1.7,0.2
		c0.1,1.3,0.2,2.5,0.4,3.5c0,0.1-0.1,0.2-0.3,0.2c-0.2,0-0.3-0.1-0.4-0.2c-0.3-1.1-0.6-2-1.1-2.5c-0.5-0.5-1.2-0.8-2.1-0.8
		c-0.9,0-1.5,0.3-2,0.8c-0.5,0.5-0.8,1.2-0.8,2c0,0.5,0.2,1.1,0.6,1.5c0.4,0.5,1.3,1.1,2.7,2c1.7,1,2.8,1.8,3.3,2.4
		C383.8,513.5,384,514.3,384,515z"/>
	<path class="st0" d="M404.1,519.3c0,0.2-0.1,0.3-0.2,0.3c-0.3,0-0.7,0-1.1-0.1c-0.5,0-0.9-0.1-1.3-0.1c-0.4,0-0.8,0-1.3,0.1
		c-0.4,0-0.8,0.1-1.1,0.1c-0.1,0-0.2-0.1-0.2-0.3c0-0.2,0.1-0.3,0.2-0.3c0.5-0.1,0.9-0.2,1-0.4c0.2-0.2,0.2-0.7,0.2-1.5v-3.8
		c0-0.9-0.2-1.5-0.5-1.9c-0.3-0.4-0.8-0.6-1.5-0.6c-0.9,0-1.7,0.3-2.3,0.9v5.3c0,0.8,0.1,1.2,0.2,1.5c0.2,0.2,0.5,0.4,1,0.4
		c0.1,0,0.2,0.1,0.2,0.3c0,0.2-0.1,0.3-0.2,0.3c-0.3,0-0.7,0-1.1-0.1c-0.4,0-0.8-0.1-1.2-0.1c-0.4,0-0.8,0-1.2,0.1
		c-0.4,0-0.8,0.1-1.1,0.1c-0.1,0-0.2-0.1-0.2-0.3c0-0.2,0.1-0.3,0.2-0.3c0.5-0.1,0.9-0.2,1-0.4c0.2-0.2,0.2-0.7,0.2-1.5v-3.8
		c0-0.8-0.2-1.5-0.5-1.9c-0.3-0.4-0.9-0.6-1.6-0.6c-0.4,0-0.8,0.1-1.2,0.3c-0.3,0.2-0.7,0.5-1.1,0.9v5.1c0,0.8,0.1,1.2,0.2,1.5
		c0.2,0.2,0.5,0.4,1,0.4c0.1,0,0.2,0.1,0.2,0.3c0,0.2-0.1,0.3-0.2,0.3c-0.3,0-0.7,0-1.1-0.1c-0.5,0-0.9-0.1-1.3-0.1
		c-0.4,0-0.8,0-1.3,0.1c-0.4,0-0.8,0.1-1.1,0.1c-0.1,0-0.2-0.1-0.2-0.3c0-0.2,0.1-0.3,0.2-0.3c0.6-0.1,1.1-0.2,1.2-0.5
		c0.2-0.2,0.3-0.7,0.3-1.5v-4.2c0-0.6-0.1-1-0.2-1.2c-0.2-0.2-0.5-0.3-1-0.4c-0.1,0-0.2-0.1-0.2-0.3c0-0.2,0.1-0.3,0.2-0.3
		c0.7-0.2,1.4-0.4,1.9-0.6c0.5-0.2,0.8-0.4,0.9-0.6c0.1-0.1,0.2-0.1,0.2-0.1c0.2,0,0.3,0.1,0.3,0.2l-0.1,1.4c1.1-1,2.1-1.5,3.1-1.5
		c1.4,0,2.4,0.6,2.9,1.7c1.1-1.1,2.3-1.7,3.4-1.7c1,0,1.8,0.3,2.4,0.9c0.6,0.6,0.9,1.4,0.9,2.4v4.3c0,0.7,0.1,1.2,0.3,1.5
		c0.2,0.2,0.6,0.4,1.2,0.5C404.1,519,404.1,519.1,404.1,519.3z"/>
	<path class="st0" d="M410.9,519.3c0,0.2-0.1,0.3-0.2,0.3c-0.3,0-0.7,0-1.2-0.1c-0.5,0-1-0.1-1.4-0.1c-0.4,0-0.8,0-1.4,0.1
		c-0.5,0-0.9,0.1-1.2,0.1c-0.1,0-0.2-0.1-0.2-0.3c0-0.2,0.1-0.3,0.2-0.3c0.6-0.1,1.1-0.2,1.2-0.5c0.2-0.2,0.3-0.7,0.3-1.5v-4.2
		c0-0.6-0.1-1-0.2-1.2c-0.2-0.2-0.5-0.3-1-0.4c-0.1,0-0.2-0.1-0.2-0.3c0-0.2,0.1-0.3,0.2-0.3c0.8-0.2,1.4-0.4,2-0.7
		c0.5-0.2,0.8-0.4,1-0.6c0.1-0.1,0.2-0.1,0.3-0.1c0.2,0,0.3,0.1,0.3,0.2c-0.1,1.7-0.2,3-0.2,4v3.6c0,0.7,0.1,1.2,0.3,1.5
		c0.2,0.2,0.6,0.4,1.3,0.5C410.8,519,410.9,519.1,410.9,519.3z M409.3,505.5c0,0.3-0.1,0.6-0.3,0.8c-0.2,0.2-0.5,0.4-0.8,0.4
		c-0.3,0-0.6-0.1-0.8-0.4c-0.2-0.2-0.3-0.5-0.3-0.8c0-0.3,0.1-0.6,0.3-0.8c0.2-0.2,0.5-0.3,0.8-0.3c0.3,0,0.6,0.1,0.8,0.3
		C409.2,504.9,409.3,505.2,409.3,505.5z"/>
	<path class="st0" d="M419.7,510.6c0,0.4-0.1,0.6-0.3,0.6l-3.4-0.1v5.5c0,1.4,0.5,2.1,1.5,2.1c0.6,0,1.2-0.1,1.7-0.4
		c0.1,0,0.1,0,0.2,0.1c0,0.1,0.1,0.2,0.1,0.3c0,0.2-0.3,0.4-0.8,0.8c-0.6,0.3-1.2,0.5-1.9,0.5c-0.9,0-1.6-0.3-2.1-0.8
		c-0.5-0.5-0.8-1.2-0.8-2.1v-0.1l0-5.5c0-0.2-0.1-0.3-0.3-0.3h-0.9c-0.2,0-0.3-0.1-0.3-0.3c0-0.1,0.1-0.3,0.2-0.3
		c1.1-0.6,2-1.5,2.7-2.6c0.1-0.1,0.2-0.2,0.3-0.2c0.2,0,0.3,0.1,0.3,0.2l-0.1,2.2h3.3C419.6,509.9,419.7,510.1,419.7,510.6z"/>
	<path class="st0" d="M433.3,519.3c0,0.2-0.1,0.3-0.2,0.3c-0.3,0-0.7,0-1.1-0.1c-0.5,0-0.9-0.1-1.3-0.1c-0.4,0-0.8,0-1.3,0.1
		c-0.4,0-0.8,0.1-1.1,0.1c-0.1,0-0.2-0.1-0.2-0.3c0-0.2,0.1-0.3,0.2-0.3c0.5-0.1,0.9-0.2,1-0.4c0.2-0.2,0.2-0.7,0.2-1.5v-3.8
		c0-1.6-0.7-2.5-2.2-2.5c-0.9,0-1.8,0.4-2.4,1.1v5.1c0,0.7,0.1,1.2,0.3,1.4c0.2,0.3,0.6,0.4,1.2,0.5c0.1,0,0.2,0.1,0.2,0.3
		c0,0.2-0.1,0.3-0.2,0.3c-0.3,0-0.7,0-1.2-0.1c-0.6,0-1-0.1-1.4-0.1c-0.4,0-0.8,0-1.3,0.1c-0.4,0-0.8,0.1-1.1,0.1
		c-0.1,0-0.2-0.1-0.2-0.3c0-0.2,0.1-0.3,0.2-0.3c0.6-0.1,1.1-0.2,1.2-0.4c0.2-0.2,0.3-0.7,0.3-1.5v-10.6c0-0.6-0.1-1-0.2-1.2
		c-0.1-0.2-0.5-0.3-1-0.4c-0.1,0-0.2-0.1-0.2-0.3c0-0.2,0.1-0.3,0.2-0.3c1.3-0.3,2.3-0.7,2.9-1.2c0.1-0.1,0.2-0.1,0.3-0.1
		c0.2,0,0.3,0.1,0.3,0.2c-0.1,1.2-0.2,2.6-0.2,4v3.9c1.1-1,2.2-1.5,3.2-1.5c1.1,0,1.9,0.3,2.6,0.9c0.6,0.6,0.9,1.4,0.9,2.4v4.3
		c0,0.7,0.1,1.2,0.3,1.5c0.2,0.2,0.6,0.4,1.3,0.5C433.3,519,433.3,519.1,433.3,519.3z"/>
</g>
</svg>
