<?xml version="1.0" encoding="utf-8"?>
<!-- Generator: Adobe Illustrator 21.1.0, SVG Export Plug-In . SVG Version: 6.00 Build 0)  -->
<svg version="1.1" id="Layer_1" xmlns="http://www.w3.org/2000/svg" xmlns:xlink="http://www.w3.org/1999/xlink" x="0px" y="0px"
	 viewBox="0 0 300 300" style="enable-background:new 0 0 300 300;" xml:space="preserve">
<style type="text/css">
	.st0{fill:#FFFFFF;}
</style>
<g>
	<g>
		<polygon class="st0" points="39,59.5 39,92.6 87.3,152.7 87.7,152.7 87.7,119.7 		"/>
		<rect x="16.3" y="59.6" class="st0" width="22.6" height="153.8"/>
	</g>
	<g>
		<polygon class="st0" points="161.8,59.5 161.8,92.6 210.2,152.7 210.5,152.7 210.5,119.7 		"/>
		<rect x="139.1" y="59.6" class="st0" width="22.6" height="153.8"/>
		<rect x="161.1" y="60.5" class="st0" width="1.3" height="32.1"/>
		<rect x="16.3" y="59.5" class="st0" width="22.7" height="2.7"/>
		<rect x="38.5" y="61.5" class="st0" width="1.8" height="31.2"/>
		<rect x="139.1" y="59.5" class="st0" width="22.7" height="2.9"/>
	</g>
	<polygon class="st0" points="263.4,57.9 263.3,58 263.3,213.8 284.2,213.8 284.2,57.9 	"/>
</g>
<g>
	<path class="st0" d="M37.8,248.3c0,0.2-0.1,0.3-0.2,0.3c-0.5,0-1.1,0-1.9-0.1c-0.7,0-1.3-0.1-1.7-0.1c-0.5,0-1,0-1.7,0.1
		c-0.7,0-1.3,0.1-1.8,0.1c-0.1,0-0.2-0.1-0.2-0.3c0-0.2,0.1-0.3,0.2-0.3c0.9-0.1,1.5-0.3,1.8-0.5c0.3-0.2,0.5-0.6,0.5-1.3v-0.2
		l-0.5-11l-5.5,13.8c0,0.1-0.2,0.2-0.3,0.2c-0.2,0-0.3-0.1-0.3-0.2L21,235.6l-0.8,10.5c0,0.1,0,0.2,0,0.3c0,0.5,0.2,0.9,0.5,1.1
		c0.3,0.2,1,0.4,1.9,0.5c0.1,0,0.2,0.1,0.2,0.3c0,0.2-0.1,0.3-0.2,0.3c-0.4,0-0.9,0-1.6-0.1c-0.6,0-1.1-0.1-1.5-0.1
		c-0.4,0-0.9,0-1.5,0.1c-0.6,0-1.1,0.1-1.5,0.1c-0.1,0-0.2-0.1-0.2-0.3c0-0.2,0.1-0.3,0.2-0.3c1-0.1,1.6-0.3,2-0.5
		c0.4-0.2,0.6-0.7,0.6-1.4l1.2-10.7c0-0.1,0-0.3,0-0.4c0-0.5-0.2-0.9-0.5-1.1c-0.3-0.2-1-0.4-1.9-0.5c-0.1,0-0.2-0.1-0.2-0.3
		c0-0.1,0-0.1,0.1-0.2c0-0.1,0.1-0.1,0.1-0.1c0.3,0,0.7,0,1.2,0.1c0.4,0,0.8,0.1,1,0.1c0.3,0,0.6,0,1.1-0.1c0.5,0,0.9-0.1,1.2-0.1
		l4.9,12.6l5-12.6c0.3,0,0.7,0,1.2,0.1c0.4,0,0.8,0.1,1.1,0.1c0.3,0,0.7,0,1.1-0.1c0.5,0,0.9-0.1,1.2-0.1c0.1,0,0.2,0.1,0.2,0.3
		c0,0.2-0.1,0.3-0.2,0.3c-0.9,0.1-1.5,0.3-1.8,0.5c-0.3,0.2-0.5,0.6-0.5,1.3v0.2l0.5,10.7c0,0.5,0.1,0.9,0.2,1.1
		c0.1,0.2,0.4,0.4,0.7,0.5c0.3,0.1,0.8,0.2,1.5,0.3C37.7,248,37.8,248.1,37.8,248.3z"/>
	<path class="st0" d="M46,248.9c-0.4,0-0.8-0.1-1.1-0.3c-0.3-0.2-0.5-0.5-0.6-0.8c-0.8,0.8-1.9,1.3-3.2,1.3c-0.7,0-1.2-0.2-1.7-0.6
		c-0.4-0.4-0.6-0.9-0.6-1.6c0-1.6,1.8-2.8,5.5-3.8l0.1-1.8v-0.1c0-0.5-0.1-1-0.4-1.3c-0.3-0.3-0.6-0.5-1.1-0.5
		c-0.4,0-0.8,0.1-1.1,0.3c-0.3,0.2-0.5,0.5-0.5,0.8c0,0.5-0.1,0.9-0.4,1.1c-0.2,0.3-0.6,0.4-1,0.4c-0.2,0-0.4-0.1-0.6-0.2
		c-0.2-0.1-0.2-0.3-0.2-0.6c0-0.6,0.5-1.2,1.6-1.8c1.1-0.6,2-1,3-1c0.8,0,1.5,0.2,2,0.7c0.5,0.5,0.8,1.1,0.8,2v0.1l-0.2,5.1v0.1
		c0,0.8,0.3,1.2,0.8,1.2c0.3,0,0.5-0.2,0.9-0.5l0.1,0c0.1,0,0.1,0,0.2,0.1c0.1,0.1,0.1,0.2,0.1,0.3c0,0.2-0.2,0.5-0.7,0.8
		C47.1,248.7,46.6,248.9,46,248.9z M44.3,243.7c-2.2,0.5-3.3,1.3-3.3,2.5c0,1.1,0.4,1.6,1.2,1.6c0.4,0,0.8-0.1,1.2-0.3
		c0.4-0.2,0.7-0.5,0.8-0.7L44.3,243.7z"/>
	<path class="st0" d="M56.5,239.6c0,0.4-0.1,0.6-0.3,0.6l-3.4-0.1v5.5c0,1.4,0.5,2.1,1.5,2.1c0.6,0,1.2-0.1,1.7-0.4
		c0.1,0,0.1,0,0.2,0.1c0,0.1,0.1,0.2,0.1,0.3c0,0.2-0.3,0.4-0.8,0.8c-0.6,0.3-1.2,0.5-1.9,0.5c-0.9,0-1.6-0.3-2.1-0.8
		c-0.5-0.5-0.8-1.2-0.8-2.1v-0.1l0-5.5c0-0.2-0.1-0.3-0.3-0.3h-0.9c-0.2,0-0.3-0.1-0.3-0.3c0-0.1,0.1-0.3,0.2-0.3
		c1.1-0.6,2-1.5,2.7-2.6c0.1-0.1,0.2-0.2,0.3-0.2c0.2,0,0.3,0.1,0.3,0.2l-0.1,2.2h3.3C56.4,238.9,56.5,239.1,56.5,239.6z"/>
	<path class="st0" d="M65.5,239.6c0,0.4-0.1,0.6-0.3,0.6l-3.4-0.1v5.5c0,1.4,0.5,2.1,1.5,2.1c0.6,0,1.2-0.1,1.7-0.4
		c0.1,0,0.1,0,0.2,0.1s0.1,0.2,0.1,0.3c0,0.2-0.3,0.4-0.8,0.8c-0.6,0.3-1.2,0.5-1.9,0.5c-0.9,0-1.6-0.3-2.1-0.8
		c-0.5-0.5-0.8-1.2-0.8-2.1v-0.1l0-5.5c0-0.2-0.1-0.3-0.3-0.3h-0.9c-0.2,0-0.3-0.1-0.3-0.3c0-0.1,0.1-0.3,0.2-0.3
		c1.1-0.6,2-1.5,2.7-2.6c0.1-0.1,0.2-0.2,0.3-0.2c0.2,0,0.3,0.1,0.3,0.2l-0.1,2.2h3.3C65.4,238.9,65.5,239.1,65.5,239.6z"/>
	<path class="st0" d="M79.2,248.3c0,0.2-0.1,0.3-0.2,0.3c-0.3,0-0.7,0-1.1-0.1c-0.5,0-0.9-0.1-1.3-0.1c-0.4,0-0.8,0-1.3,0.1
		c-0.4,0-0.8,0.1-1.1,0.1c-0.1,0-0.2-0.1-0.2-0.3c0-0.2,0.1-0.3,0.2-0.3c0.5-0.1,0.9-0.2,1-0.4c0.2-0.2,0.2-0.7,0.2-1.5v-3.8
		c0-1.6-0.7-2.5-2.2-2.5c-0.9,0-1.8,0.4-2.4,1.1v5.1c0,0.7,0.1,1.2,0.3,1.4c0.2,0.3,0.6,0.4,1.2,0.5c0.1,0,0.2,0.1,0.2,0.3
		c0,0.2-0.1,0.3-0.2,0.3c-0.3,0-0.7,0-1.2-0.1c-0.6,0-1-0.1-1.4-0.1c-0.4,0-0.8,0-1.3,0.1c-0.4,0-0.8,0.1-1.1,0.1
		c-0.1,0-0.2-0.1-0.2-0.3c0-0.2,0.1-0.3,0.2-0.3c0.6-0.1,1.1-0.2,1.2-0.4c0.2-0.2,0.3-0.7,0.3-1.5v-10.6c0-0.6-0.1-1-0.2-1.2
		c-0.1-0.2-0.5-0.3-1-0.4c-0.1,0-0.2-0.1-0.2-0.3c0-0.2,0.1-0.3,0.2-0.3c1.3-0.3,2.3-0.7,2.9-1.2c0.1-0.1,0.2-0.1,0.3-0.1
		c0.2,0,0.3,0.1,0.3,0.2c-0.1,1.2-0.2,2.6-0.2,4v3.9c1.1-1,2.2-1.5,3.2-1.5c1.1,0,1.9,0.3,2.6,0.9c0.6,0.6,0.9,1.4,0.9,2.4v4.3
		c0,0.7,0.1,1.2,0.3,1.5c0.2,0.2,0.6,0.4,1.3,0.5C79.1,248,79.2,248.1,79.2,248.3z"/>
	<path class="st0" d="M89.7,242.1c0,0.2-0.1,0.3-0.4,0.3H83c0,0.4-0.1,0.8-0.1,1.3c0,1.2,0.3,2.2,0.9,2.8c0.6,0.7,1.4,1,2.5,1
		c0.5,0,1.1-0.1,1.6-0.4c0.5-0.3,1-0.7,1.3-1.1l0.1,0c0.1,0,0.1,0,0.2,0.1c0.1,0.1,0.1,0.2,0.1,0.3c0,0.2-0.2,0.5-0.7,1
		s-1,0.9-1.6,1.2c-0.6,0.3-1.2,0.4-1.8,0.4c-1.4,0-2.5-0.5-3.4-1.5c-0.9-1-1.4-2.2-1.4-3.7c0-1.5,0.5-2.7,1.4-3.8
		c0.9-1,2.1-1.5,3.5-1.5c1.2,0,2.2,0.4,3,1.2C89.3,240.4,89.7,241.2,89.7,242.1z M87.6,241.1c0-0.6-0.2-1-0.6-1.4
		c-0.4-0.4-0.9-0.6-1.5-0.6c-0.6,0-1.1,0.2-1.5,0.7c-0.4,0.5-0.7,1.1-0.9,1.9l3.2-0.1c0.5,0,0.8-0.1,1-0.1
		C87.5,241.5,87.6,241.4,87.6,241.1z"/>
	<path class="st0" d="M107.8,239.1c0,0.2-0.1,0.3-0.2,0.3c-0.6,0.1-1,0.3-1.3,0.5c-0.2,0.2-0.5,0.7-0.8,1.4l-3.3,7.4
		c-0.1,0.1-0.2,0.2-0.3,0.2c-0.1,0-0.2-0.1-0.3-0.2l-2.3-6l-2.7,6c-0.1,0.1-0.2,0.2-0.3,0.2c-0.1,0-0.2-0.1-0.3-0.2l-3.1-7.4
		c-0.3-0.7-0.6-1.1-0.9-1.4s-0.7-0.5-1.3-0.5c-0.1,0-0.2-0.1-0.2-0.3c0-0.2,0.1-0.3,0.2-0.3c0.3,0,0.7,0,1.1,0.1
		c0.5,0,0.9,0.1,1.3,0.1c0.4,0,0.8,0,1.3-0.1c0.4,0,0.8-0.1,1.1-0.1c0.1,0,0.2,0.1,0.2,0.3c0,0.2-0.1,0.3-0.2,0.3
		c-0.4,0-0.6,0.1-0.8,0.2c-0.1,0.1-0.2,0.3-0.2,0.5c0,0.2,0.1,0.6,0.3,1.2l1.8,4.5l2-4.5l-0.1-0.4c0-0.1-0.1-0.2-0.1-0.4
		c-0.2-0.5-0.4-0.8-0.5-1c-0.1-0.2-0.4-0.3-0.7-0.3c-0.1,0-0.2-0.1-0.2-0.3c0-0.2,0.1-0.3,0.2-0.3c0.3,0,0.6,0,1,0.1
		c0.4,0,0.8,0.1,1.1,0.1c0.4,0,0.8,0,1.3-0.1c0.5,0,0.8-0.1,1.2-0.1c0.1,0,0.2,0.1,0.2,0.3c0,0.2-0.1,0.3-0.2,0.3
		c-0.8,0.1-1.2,0.5-1.2,1.2c0,0.3,0,0.6,0.1,0.8l1.7,4.4l1.8-4.2c0.2-0.5,0.3-0.9,0.3-1.2c0-0.5-0.3-0.8-1-0.9
		c-0.1,0-0.2-0.1-0.2-0.3c0-0.2,0.1-0.3,0.2-0.3c0.3,0,0.7,0,1.1,0.1c0.4,0,0.7,0.1,1,0.1c0.2,0,0.4,0,0.7-0.1
		c0.5-0.1,0.8-0.1,1.1-0.1C107.7,238.8,107.8,238.9,107.8,239.1z"/>
	<path class="st0" d="M135.7,248.3c0,0.2-0.1,0.3-0.2,0.3c-0.5,0-1.1,0-1.9-0.1c-0.7,0-1.3-0.1-1.7-0.1c-0.5,0-1,0-1.7,0.1
		c-0.7,0-1.3,0.1-1.8,0.1c-0.1,0-0.2-0.1-0.2-0.3c0-0.2,0.1-0.3,0.2-0.3c0.9-0.1,1.5-0.3,1.8-0.5c0.3-0.2,0.5-0.6,0.5-1.3v-0.2
		l-0.5-11l-5.5,13.8c0,0.1-0.2,0.2-0.3,0.2c-0.2,0-0.3-0.1-0.3-0.2l-5.2-13.2l-0.8,10.5c0,0.1,0,0.2,0,0.3c0,0.5,0.2,0.9,0.5,1.1
		c0.3,0.2,1,0.4,1.9,0.5c0.1,0,0.2,0.1,0.2,0.3c0,0.2-0.1,0.3-0.2,0.3c-0.4,0-0.9,0-1.6-0.1c-0.6,0-1.1-0.1-1.5-0.1
		c-0.4,0-0.9,0-1.5,0.1c-0.6,0-1.1,0.1-1.5,0.1c-0.1,0-0.2-0.1-0.2-0.3c0-0.2,0.1-0.3,0.2-0.3c1-0.1,1.6-0.3,2-0.5
		c0.4-0.2,0.6-0.7,0.6-1.4l1.2-10.7c0-0.1,0-0.3,0-0.4c0-0.5-0.2-0.9-0.5-1.1c-0.3-0.2-1-0.4-1.9-0.5c-0.1,0-0.2-0.1-0.2-0.3
		c0-0.1,0-0.1,0.1-0.2c0-0.1,0.1-0.1,0.1-0.1c0.3,0,0.7,0,1.2,0.1c0.4,0,0.8,0.1,1,0.1c0.3,0,0.6,0,1.1-0.1c0.5,0,0.9-0.1,1.2-0.1
		l4.9,12.6l5-12.6c0.3,0,0.7,0,1.2,0.1c0.4,0,0.8,0.1,1.1,0.1c0.3,0,0.7,0,1.1-0.1c0.5,0,0.9-0.1,1.2-0.1c0.1,0,0.2,0.1,0.2,0.3
		c0,0.2-0.1,0.3-0.2,0.3c-0.9,0.1-1.5,0.3-1.8,0.5c-0.3,0.2-0.5,0.6-0.5,1.3v0.2l0.5,10.7c0,0.5,0.1,0.9,0.2,1.1
		c0.1,0.2,0.4,0.4,0.7,0.5c0.3,0.1,0.8,0.2,1.5,0.3C135.7,248,135.7,248.1,135.7,248.3z"/>
	<path class="st0" d="M145.4,240.2c0,0.6-0.3,0.9-0.9,0.9c-0.3,0-0.5-0.1-0.7-0.2c-0.2-0.1-0.3-0.4-0.5-0.7
		c-0.2-0.4-0.4-0.7-0.7-0.9c-0.2-0.1-0.5-0.2-0.9-0.2c-0.9,0-1.6,0.4-2.1,1.1c-0.5,0.8-0.7,1.9-0.7,3.3c0,1.2,0.3,2.2,0.9,3
		c0.6,0.7,1.4,1.1,2.4,1.1c1.2,0,2.1-0.4,2.7-1.1l0.1,0c0.1,0,0.1,0,0.2,0.1c0.1,0.1,0.1,0.2,0.1,0.3c0,0.2-0.2,0.4-0.7,0.8
		c-0.4,0.4-0.9,0.7-1.5,0.8c-0.5,0.2-1.1,0.3-1.7,0.3c-1.4,0-2.5-0.5-3.5-1.5c-1-1-1.5-2.3-1.5-3.8c0-1.5,0.5-2.8,1.5-3.8
		c1-1,2.2-1.5,3.6-1.5c1,0,1.9,0.2,2.6,0.5C145.1,239.3,145.4,239.7,145.4,240.2z"/>
	<path class="st0" d="M168.6,248.3c0,0.2-0.1,0.3-0.2,0.3c-0.5,0-1.1,0-1.9-0.1c-0.7,0-1.3-0.1-1.7-0.1c-0.5,0-1,0-1.7,0.1
		c-0.7,0-1.3,0.1-1.8,0.1c-0.1,0-0.2-0.1-0.2-0.3c0-0.2,0.1-0.3,0.2-0.3c0.9-0.1,1.5-0.3,1.8-0.5c0.3-0.2,0.5-0.6,0.5-1.3v-0.2
		l-0.5-11l-5.5,13.8c0,0.1-0.2,0.2-0.3,0.2c-0.2,0-0.3-0.1-0.3-0.2l-5.2-13.2l-0.8,10.5c0,0.1,0,0.2,0,0.3c0,0.5,0.2,0.9,0.5,1.1
		c0.3,0.2,1,0.4,1.9,0.5c0.1,0,0.2,0.1,0.2,0.3c0,0.2-0.1,0.3-0.2,0.3c-0.4,0-0.9,0-1.6-0.1c-0.6,0-1.1-0.1-1.5-0.1
		c-0.4,0-0.9,0-1.5,0.1c-0.6,0-1.1,0.1-1.5,0.1c-0.1,0-0.2-0.1-0.2-0.3c0-0.2,0.1-0.3,0.2-0.3c1-0.1,1.6-0.3,2-0.5
		c0.4-0.2,0.6-0.7,0.6-1.4l1.2-10.7c0-0.1,0-0.3,0-0.4c0-0.5-0.2-0.9-0.5-1.1c-0.3-0.2-1-0.4-1.9-0.5c-0.1,0-0.2-0.1-0.2-0.3
		c0-0.1,0-0.1,0.1-0.2c0-0.1,0.1-0.1,0.1-0.1c0.3,0,0.7,0,1.2,0.1c0.4,0,0.8,0.1,1,0.1c0.3,0,0.6,0,1.1-0.1c0.5,0,0.9-0.1,1.2-0.1
		l4.9,12.6l5-12.6c0.3,0,0.7,0,1.2,0.1c0.4,0,0.8,0.1,1.1,0.1c0.3,0,0.7,0,1.2-0.1c0.5,0,0.9-0.1,1.2-0.1c0.1,0,0.2,0.1,0.2,0.3
		c0,0.2-0.1,0.3-0.2,0.3c-0.9,0.1-1.5,0.3-1.8,0.5c-0.3,0.2-0.5,0.6-0.5,1.3v0.2l0.5,10.7c0,0.5,0.1,0.9,0.2,1.1s0.4,0.4,0.7,0.5
		c0.3,0.1,0.8,0.2,1.5,0.3C168.6,248,168.6,248.1,168.6,248.3z"/>
	<path class="st0" d="M180.7,247.9c0,0.2-0.1,0.3-0.2,0.3c-1.4,0.1-2.3,0.4-2.8,0.8c-0.1,0.1-0.2,0.1-0.3,0.1
		c-0.2,0-0.2-0.1-0.2-0.2l0.1-1.4c-1.1,1-2.1,1.5-3.1,1.5c-1,0-1.8-0.3-2.4-0.9c-0.6-0.6-0.9-1.4-0.9-2.4v-4.3
		c0-0.7-0.1-1.1-0.3-1.3c-0.2-0.2-0.5-0.3-1-0.3c-0.1,0-0.2,0-0.3,0c-0.1,0-0.2-0.1-0.2-0.3c0-0.2,0.1-0.4,0.2-0.4
		c0.9,0,2-0.2,3.4-0.5c0.1,0,0.2,0.1,0.2,0.3v6.3c0,0.9,0.2,1.5,0.5,1.9c0.3,0.4,0.8,0.6,1.5,0.6c0.4,0,0.8-0.1,1.2-0.3
		c0.3-0.2,0.7-0.5,1.1-0.9v-5c0-0.7-0.1-1.1-0.3-1.3c-0.2-0.2-0.5-0.3-1.1-0.3c-0.1,0-0.2,0-0.3,0c-0.1,0-0.2-0.1-0.2-0.3
		c0-0.2,0.1-0.4,0.2-0.4c0.9,0,2-0.2,3.5-0.5c0.1,0,0.2,0.1,0.2,0.3v7.3c0,0.5,0.1,0.9,0.2,1.1c0.1,0.2,0.5,0.3,1,0.4
		C180.6,247.6,180.7,247.7,180.7,247.9z"/>
	<path class="st0" d="M187.3,248.3c0,0.2-0.1,0.3-0.2,0.3c-0.3,0-0.7,0-1.2-0.1c-0.5,0-1-0.1-1.4-0.1c-0.4,0-0.8,0-1.4,0.1
		c-0.5,0-0.9,0.1-1.2,0.1c-0.1,0-0.2-0.1-0.2-0.3c0-0.2,0.1-0.3,0.2-0.3c0.6-0.1,1.1-0.2,1.3-0.5c0.2-0.2,0.3-0.7,0.3-1.5v-10.6
		c0-0.6-0.1-1-0.2-1.2c-0.2-0.2-0.5-0.3-1-0.4c-0.1,0-0.2-0.1-0.2-0.3c0-0.2,0.1-0.3,0.2-0.3c0.8-0.2,1.4-0.4,2-0.7
		c0.5-0.2,0.8-0.4,1-0.6c0.1-0.1,0.2-0.1,0.3-0.1c0.2,0,0.3,0.1,0.3,0.2c-0.1,1.7-0.2,3-0.2,4v9.9c0,0.7,0.1,1.2,0.3,1.5
		c0.2,0.2,0.6,0.4,1.3,0.5C187.2,248,187.3,248.1,187.3,248.3z"/>
	<path class="st0" d="M194,248.3c0,0.2-0.1,0.3-0.2,0.3c-0.3,0-0.7,0-1.2-0.1c-0.5,0-1-0.1-1.4-0.1c-0.4,0-0.8,0-1.4,0.1
		c-0.5,0-0.9,0.1-1.2,0.1c-0.1,0-0.2-0.1-0.2-0.3c0-0.2,0.1-0.3,0.2-0.3c0.6-0.1,1.1-0.2,1.3-0.5c0.2-0.2,0.3-0.7,0.3-1.5v-10.6
		c0-0.6-0.1-1-0.2-1.2c-0.2-0.2-0.5-0.3-1-0.4c-0.1,0-0.2-0.1-0.2-0.3c0-0.2,0.1-0.3,0.2-0.3c0.8-0.2,1.4-0.4,2-0.7
		c0.5-0.2,0.8-0.4,1-0.6c0.1-0.1,0.2-0.1,0.3-0.1c0.2,0,0.3,0.1,0.3,0.2c-0.1,1.7-0.2,3-0.2,4v9.9c0,0.7,0.1,1.2,0.3,1.5
		c0.2,0.2,0.6,0.4,1.3,0.5C194,248,194,248.1,194,248.3z"/>
	<path class="st0" d="M204.5,242.1c0,0.2-0.1,0.3-0.4,0.3h-6.2c0,0.4-0.1,0.8-0.1,1.3c0,1.2,0.3,2.2,0.9,2.8c0.6,0.7,1.4,1,2.5,1
		c0.5,0,1.1-0.1,1.6-0.4c0.5-0.3,1-0.7,1.3-1.1l0.1,0c0.1,0,0.1,0,0.2,0.1c0.1,0.1,0.1,0.2,0.1,0.3c0,0.2-0.2,0.5-0.7,1
		c-0.5,0.5-1,0.9-1.6,1.2c-0.6,0.3-1.2,0.4-1.8,0.4c-1.4,0-2.5-0.5-3.4-1.5c-0.9-1-1.4-2.2-1.4-3.7c0-1.5,0.5-2.7,1.4-3.8
		c0.9-1,2.1-1.5,3.5-1.5c1.2,0,2.2,0.4,3,1.2C204.1,240.4,204.5,241.2,204.5,242.1z M202.4,241.1c0-0.6-0.2-1-0.6-1.4
		c-0.4-0.4-0.9-0.6-1.5-0.6c-0.6,0-1.1,0.2-1.5,0.7c-0.4,0.5-0.7,1.1-0.9,1.9l3.2-0.1c0.5,0,0.8-0.1,1-0.1
		C202.3,241.5,202.4,241.4,202.4,241.1z"/>
	<path class="st0" d="M218.3,248.3c0,0.2-0.1,0.3-0.2,0.3c-0.3,0-0.7,0-1.1-0.1c-0.5,0-0.9-0.1-1.3-0.1c-0.4,0-0.8,0-1.3,0.1
		c-0.4,0-0.8,0.1-1.1,0.1c-0.1,0-0.2-0.1-0.2-0.3c0-0.2,0.1-0.3,0.2-0.3c0.5-0.1,0.9-0.2,1-0.4c0.2-0.2,0.2-0.7,0.2-1.5v-3.8
		c0-0.8-0.2-1.5-0.5-1.9c-0.3-0.4-0.9-0.6-1.5-0.6c-0.4,0-0.8,0.1-1.2,0.3s-0.7,0.5-1.1,0.9v5.1c0,0.8,0.1,1.2,0.2,1.5
		c0.2,0.2,0.5,0.4,1,0.4c0.1,0,0.2,0.1,0.2,0.3c0,0.2-0.1,0.3-0.2,0.3c-0.3,0-0.7,0-1.1-0.1c-0.5,0-0.9-0.1-1.3-0.1
		c-0.4,0-0.8,0-1.3,0.1c-0.4,0-0.8,0.1-1.1,0.1c-0.1,0-0.2-0.1-0.2-0.3c0-0.2,0.1-0.3,0.2-0.3c0.7-0.1,1.1-0.2,1.3-0.5
		c0.2-0.2,0.3-0.7,0.3-1.4v-4.2c0-0.6-0.1-1-0.2-1.2c-0.2-0.2-0.5-0.3-1-0.4c-0.1,0-0.2-0.1-0.2-0.3c0-0.2,0.1-0.3,0.2-0.3
		c0.8-0.2,1.4-0.4,1.9-0.6s0.8-0.4,0.9-0.6c0.1-0.1,0.2-0.1,0.3-0.1c0.2,0,0.3,0.1,0.3,0.2l-0.1,1.4c1.1-1,2.1-1.5,3-1.5
		c1,0,1.8,0.3,2.4,0.9c0.6,0.6,0.9,1.4,0.9,2.4v4.3c0,0.7,0.1,1.2,0.3,1.5c0.2,0.2,0.6,0.4,1.2,0.5
		C218.2,248,218.3,248.1,218.3,248.3z"/>
	<path class="st0" d="M236,244c0,1.5-0.4,2.7-1.3,3.6c-0.9,0.9-2.1,1.3-3.6,1.3c-0.7,0-1.5-0.1-2.4-0.4c-0.9-0.2-1.6-0.3-2.1-0.3
		c0-1.3-0.1-2.6-0.3-3.9c0-0.1,0.1-0.2,0.3-0.2c0.2,0,0.3,0.1,0.3,0.2c0.4,1.4,0.9,2.4,1.6,3c0.6,0.6,1.5,0.9,2.7,0.9
		c0.9,0,1.6-0.3,2.1-0.8c0.5-0.5,0.8-1.3,0.8-2.2c0-0.6-0.2-1.2-0.7-1.7c-0.4-0.5-1.4-1.2-2.8-2c-1.6-0.9-2.7-1.8-3.2-2.4
		c-0.5-0.7-0.8-1.4-0.8-2.2c0-1.2,0.5-2.3,1.4-3.1c0.9-0.9,2.1-1.3,3.5-1.3c0.5,0,1.1,0.1,1.8,0.2c0.6,0.1,1.2,0.2,1.7,0.2
		c0.1,1.3,0.2,2.5,0.4,3.5c0,0.1-0.1,0.2-0.3,0.2c-0.2,0-0.3-0.1-0.4-0.2c-0.3-1.1-0.6-2-1.1-2.5c-0.5-0.5-1.2-0.8-2.1-0.8
		c-0.9,0-1.5,0.3-2,0.8c-0.5,0.5-0.8,1.2-0.8,2c0,0.5,0.2,1.1,0.6,1.5c0.4,0.5,1.3,1.1,2.7,2c1.7,1,2.8,1.8,3.3,2.4
		C235.8,242.5,236,243.3,236,244z"/>
	<path class="st0" d="M256.1,248.3c0,0.2-0.1,0.3-0.2,0.3c-0.3,0-0.7,0-1.1-0.1c-0.5,0-0.9-0.1-1.3-0.1c-0.4,0-0.8,0-1.3,0.1
		c-0.4,0-0.8,0.1-1.1,0.1c-0.1,0-0.2-0.1-0.2-0.3c0-0.2,0.1-0.3,0.2-0.3c0.5-0.1,0.9-0.2,1-0.4c0.2-0.2,0.2-0.7,0.2-1.5v-3.8
		c0-0.9-0.2-1.5-0.5-1.9c-0.3-0.4-0.8-0.6-1.5-0.6c-0.9,0-1.7,0.3-2.3,0.9v5.3c0,0.8,0.1,1.2,0.2,1.5c0.2,0.2,0.5,0.4,1,0.4
		c0.1,0,0.2,0.1,0.2,0.3c0,0.2-0.1,0.3-0.2,0.3c-0.3,0-0.7,0-1.1-0.1c-0.4,0-0.8-0.1-1.2-0.1c-0.4,0-0.8,0-1.2,0.1
		c-0.4,0-0.8,0.1-1.1,0.1c-0.1,0-0.2-0.1-0.2-0.3c0-0.2,0.1-0.3,0.2-0.3c0.5-0.1,0.9-0.2,1-0.4c0.2-0.2,0.2-0.7,0.2-1.5v-3.8
		c0-0.8-0.2-1.5-0.5-1.9c-0.3-0.4-0.9-0.6-1.6-0.6c-0.4,0-0.8,0.1-1.2,0.3c-0.3,0.2-0.7,0.5-1.1,0.9v5.1c0,0.8,0.1,1.2,0.2,1.5
		c0.2,0.2,0.5,0.4,1,0.4c0.1,0,0.2,0.1,0.2,0.3c0,0.2-0.1,0.3-0.2,0.3c-0.3,0-0.7,0-1.1-0.1c-0.5,0-0.9-0.1-1.3-0.1
		c-0.4,0-0.8,0-1.3,0.1c-0.4,0-0.8,0.1-1.1,0.1c-0.1,0-0.2-0.1-0.2-0.3c0-0.2,0.1-0.3,0.2-0.3c0.6-0.1,1.1-0.2,1.2-0.5
		c0.2-0.2,0.3-0.7,0.3-1.5v-4.2c0-0.6-0.1-1-0.2-1.2c-0.2-0.2-0.5-0.3-1-0.4c-0.1,0-0.2-0.1-0.2-0.3c0-0.2,0.1-0.3,0.2-0.3
		c0.7-0.2,1.4-0.4,1.9-0.6c0.5-0.2,0.8-0.4,0.9-0.6c0.1-0.1,0.2-0.1,0.2-0.1c0.2,0,0.3,0.1,0.3,0.2l-0.1,1.4c1.1-1,2.1-1.5,3.1-1.5
		c1.4,0,2.4,0.6,2.9,1.7c1.1-1.1,2.3-1.7,3.4-1.7c1,0,1.8,0.3,2.4,0.9c0.6,0.6,0.9,1.4,0.9,2.4v4.3c0,0.7,0.1,1.2,0.3,1.5
		c0.2,0.2,0.6,0.4,1.2,0.5C256.1,248,256.1,248.1,256.1,248.3z"/>
	<path class="st0" d="M262.9,248.3c0,0.2-0.1,0.3-0.2,0.3c-0.3,0-0.7,0-1.2-0.1c-0.5,0-1-0.1-1.4-0.1c-0.4,0-0.8,0-1.4,0.1
		c-0.5,0-0.9,0.1-1.2,0.1c-0.1,0-0.2-0.1-0.2-0.3c0-0.2,0.1-0.3,0.2-0.3c0.6-0.1,1.1-0.2,1.2-0.5c0.2-0.2,0.3-0.7,0.3-1.5v-4.2
		c0-0.6-0.1-1-0.2-1.2c-0.2-0.2-0.5-0.3-1-0.4c-0.1,0-0.2-0.1-0.2-0.3c0-0.2,0.1-0.3,0.2-0.3c0.8-0.2,1.4-0.4,2-0.7
		c0.5-0.2,0.8-0.4,1-0.6c0.1-0.1,0.2-0.1,0.3-0.1c0.2,0,0.3,0.1,0.3,0.2c-0.1,1.7-0.2,3-0.2,4v3.6c0,0.7,0.1,1.2,0.3,1.5
		c0.2,0.2,0.6,0.4,1.3,0.5C262.8,248,262.9,248.1,262.9,248.3z M261.3,234.5c0,0.3-0.1,0.6-0.3,0.8c-0.2,0.2-0.5,0.4-0.8,0.4
		c-0.3,0-0.6-0.1-0.8-0.4c-0.2-0.2-0.3-0.5-0.3-0.8c0-0.3,0.1-0.6,0.3-0.8c0.2-0.2,0.5-0.3,0.8-0.3c0.3,0,0.6,0.1,0.8,0.3
		C261.2,233.9,261.3,234.2,261.3,234.5z"/>
	<path class="st0" d="M271.7,239.6c0,0.4-0.1,0.6-0.3,0.6l-3.4-0.1v5.5c0,1.4,0.5,2.1,1.5,2.1c0.6,0,1.2-0.1,1.7-0.4
		c0.1,0,0.1,0,0.2,0.1s0.1,0.2,0.1,0.3c0,0.2-0.3,0.4-0.8,0.8c-0.6,0.3-1.2,0.5-1.9,0.5c-0.9,0-1.6-0.3-2.1-0.8
		c-0.5-0.5-0.8-1.2-0.8-2.1v-0.1l0-5.5c0-0.2-0.1-0.3-0.3-0.3h-0.9c-0.2,0-0.3-0.1-0.3-0.3c0-0.1,0.1-0.3,0.2-0.3
		c1.1-0.6,2-1.5,2.7-2.6c0.1-0.1,0.2-0.2,0.3-0.2c0.2,0,0.3,0.1,0.3,0.2l-0.1,2.2h3.3C271.6,238.9,271.7,239.1,271.7,239.6z"/>
	<path class="st0" d="M285.3,248.3c0,0.2-0.1,0.3-0.2,0.3c-0.3,0-0.7,0-1.1-0.1c-0.5,0-0.9-0.1-1.3-0.1c-0.4,0-0.8,0-1.3,0.1
		c-0.4,0-0.8,0.1-1.1,0.1c-0.1,0-0.2-0.1-0.2-0.3c0-0.2,0.1-0.3,0.2-0.3c0.5-0.1,0.9-0.2,1-0.4c0.2-0.2,0.2-0.7,0.2-1.5v-3.8
		c0-1.6-0.7-2.5-2.2-2.5c-0.9,0-1.8,0.4-2.4,1.1v5.1c0,0.7,0.1,1.2,0.3,1.4c0.2,0.3,0.6,0.4,1.2,0.5c0.1,0,0.2,0.1,0.2,0.3
		c0,0.2-0.1,0.3-0.2,0.3c-0.3,0-0.7,0-1.2-0.1c-0.6,0-1-0.1-1.4-0.1c-0.4,0-0.8,0-1.3,0.1c-0.4,0-0.8,0.1-1.1,0.1
		c-0.1,0-0.2-0.1-0.2-0.3c0-0.2,0.1-0.3,0.2-0.3c0.6-0.1,1.1-0.2,1.2-0.4c0.2-0.2,0.3-0.7,0.3-1.5v-10.6c0-0.6-0.1-1-0.2-1.2
		c-0.1-0.2-0.5-0.3-1-0.4c-0.1,0-0.2-0.1-0.2-0.3c0-0.2,0.1-0.3,0.2-0.3c1.3-0.3,2.3-0.7,2.9-1.2c0.1-0.1,0.2-0.1,0.3-0.1
		c0.2,0,0.3,0.1,0.3,0.2c-0.1,1.2-0.2,2.6-0.2,4v3.9c1.1-1,2.2-1.5,3.2-1.5c1.1,0,1.9,0.3,2.6,0.9c0.6,0.6,0.9,1.4,0.9,2.4v4.3
		c0,0.7,0.1,1.2,0.3,1.5c0.2,0.2,0.6,0.4,1.3,0.5C285.3,248,285.3,248.1,285.3,248.3z"/>
</g>
</svg>
